<?xml version="1.0" encoding="UTF-8"?>
<svg width="82px" height="85px" viewBox="0 0 82 85" version="1.1" xmlns="http://www.w3.org/2000/svg" xmlns:xlink="http://www.w3.org/1999/xlink">
    <title>pIcon/Generic</title>
    <defs>
        <polygon id="path-1" points="0 0.0920833333 81.6 0.0920833333 81.6 84.586131 0 84.586131"></polygon>
    </defs>
    <g id="pIcon/Generic" stroke="none" stroke-width="1" fill="none" fill-rule="evenodd">
        <g id="Group-3-Copy-2">
            <mask id="mask-2" fill="white">
                <use xlink:href="#path-1"></use>
            </mask>
            <g id="Clip-2"></g>
            <path d="M48.9605375,0.87453869 C52.7014333,1.66230655 56.250789,2.98891369 59.5441063,4.75721726 C59.6325471,4.80477679 59.7224537,4.8503125 59.8104057,4.89888393 C64.6648728,7.55209821 68.9422764,11.1833185 72.3919531,15.5471577 L72.3919531,15.5471577 L49.5263626,15.5471577 L42.0748656,23.2634375 L77.2351818,23.2634375 C78.8779315,26.6275149 80.103886,30.2460863 80.8324225,34.052872 L80.8324225,34.052872 L41.266195,34.052872 L48.717692,41.7691518 L81.6034692,41.7691518 C81.6059123,41.9512946 81.616662,42.1309077 81.616662,42.3135565 C81.616662,45.847128 81.1920489,49.2779911 80.4029231,52.5590923 L80.4029231,52.5590923 L59.1380608,52.5590923 L73.5763746,67.5099851 C71.4958189,70.4090923 69.0610117,73.0182887 66.3442692,75.2798958 L66.3442692,75.2798958 L29.092159,36.7060863 L23.4612704,42.5366815 L59.5250501,79.8800149 C56.1310764,81.7004315 52.4615195,83.0442411 48.5940704,83.820372 L48.5940704,83.820372 L16.0928393,50.1664435 L10.4619507,55.9970387 L37.9831387,84.4937946 C23.4910764,83.4793601 11.0761495,74.6444196 4.64196503,62.0234375 C3.75804647,60.2900446 2.98406802,58.4878423 2.33664287,56.6218899 C1.68139976,54.7356994 1.14880096,52.7887946 0.755459641,50.7887649 L0.755459641,50.7887649 Z M38.5044014,0.0918303571 L-4.88622781e-05,39.9618899 C1.13795353,18.4791518 17.7574793,1.2696875 38.5044014,0.0918303571 L38.5044014,0.0918303571 Z" id="Combined-Shape" fill="#95A0B4" mask="url(#mask-2)"></path>
        </g>
    </g>
</svg>